<svg width="48" height="49" viewBox="0 0 48 49" fill="none" xmlns="http://www.w3.org/2000/svg">
<path d="M26 17.9072H18C14.134 17.9072 11 14.7705 11 10.9011C11 7.03183 14.134 3.89514 18 3.89514H26V17.9072Z" fill="#E64A19"/>
<path d="M25 31.9192H18C14.134 31.9192 11 28.7825 11 24.9132C11 21.0439 14.134 17.9072 18 17.9072H25V31.9192Z" fill="#7C4DFF"/>
<path d="M18 45.9312C14.134 45.9312 11 42.7945 11 38.9252C11 35.0559 14.134 31.9192 18 31.9192H25V38.9252C25 42.7945 21.866 45.9312 18 45.9312Z" fill="#66BB6A"/>
<path d="M32 17.9072H25V3.89514H32C35.866 3.89514 39 7.03183 39 10.9011C39 14.7705 35.866 17.9072 32 17.9072Z" fill="#FF7043"/>
<path d="M32 31.9192C35.866 31.9192 39 28.7825 39 24.9132C39 21.0439 35.866 17.9072 32 17.9072C28.134 17.9072 25 21.0439 25 24.9132C25 28.7825 28.134 31.9192 32 31.9192Z" fill="#29B6F6"/>
</svg>
