<svg width="35" height="36" viewBox="0 0 35 36" fill="none" xmlns="http://www.w3.org/2000/svg">
<path d="M17.5 0.00341797C7.83563 0.00341797 0 7.96857 0 17.7927C0 26.1284 5.64667 33.1033 13.2592 35.0335C13.1775 34.7933 13.125 34.5146 13.125 34.1692V31.1287C12.4148 31.1287 11.2248 31.1287 10.9258 31.1287C9.72854 31.1287 8.66396 30.6054 8.14771 29.6329C7.57458 28.5522 7.47542 26.8993 6.055 25.8883C5.63354 25.5518 5.95437 25.1678 6.44 25.2197C7.33688 25.4777 8.08063 26.1032 8.78063 27.0313C9.47771 27.9607 9.80583 28.1712 11.1081 28.1712C11.7396 28.1712 12.6846 28.1342 13.5742 27.9919C14.0525 26.757 14.8794 25.62 15.89 25.0833C10.0625 24.474 7.28146 21.527 7.28146 17.5259C7.28146 15.8033 8.00333 14.137 9.22979 12.7331C8.82729 11.3396 8.32125 8.4978 9.38438 7.41561C12.0065 7.41561 13.5917 9.14414 13.9723 9.61111C15.279 9.156 16.714 8.89805 18.2219 8.89805C19.7327 8.89805 21.1735 9.156 22.4831 9.61407C22.8594 9.15007 24.446 7.41561 27.074 7.41561C28.1415 8.49928 27.6296 11.353 27.2227 12.7435C28.4419 14.1444 29.1594 15.8062 29.1594 17.5259C29.1594 21.524 26.3827 24.4696 20.564 25.0818C22.1652 25.9313 23.3333 28.318 23.3333 30.1162V34.1692C23.3333 34.3234 23.2998 34.4346 23.2823 34.5665C30.1015 32.1368 35 25.5547 35 17.7927C35 7.96857 27.1644 0.00341797 17.5 0.00341797Z" fill="black"/>
</svg>
