<svg width="85" height="120" viewBox="0 0 85 120" fill="none" xmlns="http://www.w3.org/2000/svg">
<path d="M76.25 66.25H33.75L37.5 108.75L55 113.75L72.5 108.75L76.25 66.25Z" fill="#E65100"/>
<path d="M55 70V109.875L69 105.875L72.125 70H55Z" fill="#FF6D00"/>
<path d="M55 91.25V86.25H65.75L64.875 100.625L55 103.875V98.625L60.125 96.875L60.5 91.25H55ZM66.125 81.25L66.5 76.25H55V81.25H66.125Z" fill="white"/>
<path d="M55 98.625V103.875L45.125 100.625L44.625 93.75H49.625L49.875 96.875L55 98.625ZM48.875 81.25H55V76.25H43.625L44.5 91.25H55V86.25H49.25L48.875 81.25Z" fill="#EEEEEE"/>
<path d="M51.25 6.25H8.75L12.5 48.75L30 53.75L47.5 48.75L51.25 6.25Z" fill="#0277BD"/>
<path d="M30 10V49.875L44 45.875L47.125 10H30Z" fill="#039BE5"/>
<path d="M41.375 16.25H30V21.25H36.125L35.75 26.25H30V31.25H35.5L35.125 36.875L30 38.625V43.875L39.875 40.625L40.75 26.25L41.375 16.25Z" fill="white"/>
<path d="M30 16.25V21.25H18.875L18.5 16.25H30ZM24.25 26.25L24.5 31.25H30V26.25H24.25ZM24.75 33.75H19.75L20.125 40.625L30 43.875V38.625L24.875 36.875L24.75 33.75Z" fill="#EEEEEE"/>
</svg>
