<svg width="48" height="49" viewBox="0 0 48 49" fill="none" xmlns="http://www.w3.org/2000/svg">
<path d="M24.047 5.89686C22.492 5.90187 21.414 6.03898 20.111 6.26418C16.263 6.93475 15.562 8.34296 15.562 10.9382V14.9046H24.562V16.9063H15.22H10.87C8.23395 16.9063 5.92695 18.1494 5.19595 21.1289C4.36995 24.5489 4.33295 26.6907 5.19595 30.2618C5.85095 32.925 7.29395 34.9218 9.93095 34.9218H13.563V29.8134C13.563 26.8448 16.249 23.9123 19.327 23.9123H26.563C29.086 23.9123 31.563 22.0487 31.563 19.5316V10.9382C31.563 8.49709 29.8039 6.67153 27.3449 6.26218C27.4059 6.25617 25.589 5.89086 24.047 5.89686ZM19.063 9.9003C19.884 9.9003 20.563 10.5779 20.563 11.4036C20.563 12.2373 19.884 12.9029 19.063 12.9029C18.226 12.9029 17.563 12.2383 17.563 11.4036C17.563 10.5809 18.226 9.9003 19.063 9.9003Z" fill="#0277BD"/>
<path d="M23.078 43.9295C24.633 43.9245 25.711 43.7874 27.014 43.5622C30.862 42.8916 31.563 41.4834 31.563 38.8882V34.9218H22.563V32.9201H31.906H36.256C38.892 32.9201 41.199 31.677 41.93 28.6974C42.756 25.2775 42.793 23.1357 41.93 19.5646C41.274 16.9013 39.831 14.9046 37.194 14.9046H33.562V20.013C33.562 22.9815 30.876 25.914 27.798 25.914H20.562C18.039 25.914 15.562 27.7776 15.562 30.2948V38.8882C15.562 41.3293 17.321 43.1548 19.78 43.5642C19.719 43.5702 21.536 43.9355 23.078 43.9295ZM28.063 39.9261C27.242 39.9261 26.563 39.2485 26.563 38.4228C26.563 37.5891 27.242 36.9235 28.063 36.9235C28.9 36.9235 29.563 37.5881 29.563 38.4228C29.563 39.2455 28.899 39.9261 28.063 39.9261Z" fill="#FFC107"/>
</svg>
