<svg width="200" height="200" viewBox="0 0 200 200" fill="none" xmlns="http://www.w3.org/2000/svg">
<path d="M98.5 55.9999V53.4999H96H58.5V36.3749C58.5 31.7159 60.1129 25.3346 65.6653 20.1049C71.2128 14.8797 81.0179 10.4999 98 10.4999C121.858 10.4999 133.5 24.159 133.5 36.3749V87.9999C133.5 93.416 129.416 97.4999 124 97.4999H76C65.8224 97.4999 57.5 105.822 57.5 116V137.5H36.375C30.4407 137.5 24.0593 135.171 19.1281 129.463C14.184 123.74 10.5 114.383 10.5 99.9999C10.5 85.6164 14.184 76.2595 19.1281 70.5366C24.0593 64.8287 30.4407 62.4999 36.375 62.4999H96H98.5V59.9999V55.9999ZM101.5 144V146.5H104H141.5V163.625C141.5 168.284 139.887 174.665 134.335 179.895C128.787 185.12 118.982 189.5 102 189.5C78.1424 189.5 66.5 175.841 66.5 163.625V116C66.5 110.584 70.5838 106.5 76 106.5H124C134.178 106.5 142.5 98.1775 142.5 87.9999V62.4999H163.625C169.559 62.4999 175.941 64.8287 180.872 70.5366C185.816 76.2595 189.5 85.6164 189.5 99.9999C189.5 114.383 185.816 123.74 180.872 129.463C175.941 135.171 169.559 137.5 163.625 137.5H104H101.5V140V144ZM90.5 35.9999C90.5 30.2129 85.787 25.4999 80 25.4999C74.213 25.4999 69.5 30.2129 69.5 35.9999C69.5 41.7868 74.213 46.4999 80 46.4999C85.787 46.4999 90.5 41.7868 90.5 35.9999ZM130.5 164C130.5 158.213 125.787 153.5 120 153.5C114.213 153.5 109.5 158.213 109.5 164C109.5 169.787 114.213 174.5 120 174.5C125.787 174.5 130.5 169.787 130.5 164Z" stroke="white" stroke-width="5"/>
</svg>
