<svg width="68" height="68" viewBox="0 0 68 68" fill="none" xmlns="http://www.w3.org/2000/svg">
<path d="M34.0001 5.66675C26.4856 5.66675 19.2789 8.65186 13.9654 13.9654C8.65186 19.2789 5.66675 26.4856 5.66675 34.0001C5.66675 41.5145 8.65186 48.7212 13.9654 54.0348C19.2789 59.3483 26.4856 62.3334 34.0001 62.3334C41.5145 62.3334 48.7212 59.3483 54.0348 54.0348C59.3483 48.7212 62.3334 41.5145 62.3334 34.0001C62.3334 26.4856 59.3483 19.2789 54.0348 13.9654C48.7212 8.65186 41.5145 5.66675 34.0001 5.66675Z" fill="#29B6F6"/>
<path d="M48.0959 21.2499L42.7891 48.3451C42.7891 48.3451 42.561 49.5833 41.0253 49.5833C40.2093 49.5833 39.7886 49.1951 39.7886 49.1951L28.2937 39.6567L22.6696 36.8219L15.4517 34.9023C15.4517 34.9023 14.1667 34.5312 14.1667 33.4687C14.1667 32.5833 15.4885 32.1611 15.4885 32.1611L45.6862 20.1648C45.6847 20.1633 46.6084 19.8318 47.2813 19.8333C47.695 19.8333 48.1667 20.0103 48.1667 20.5416C48.1667 20.8958 48.0959 21.2499 48.0959 21.2499Z" fill="white"/>
<path d="M32.5833 43.2153L27.7298 47.9951C27.7298 47.9951 27.5187 48.1581 27.2368 48.1651C27.139 48.168 27.0342 48.1524 26.9265 48.1042L28.2922 39.6538L32.5833 43.2153Z" fill="#B0BEC5"/>
<path d="M42.3542 25.7778C42.1147 25.4661 41.6727 25.4094 41.3611 25.646L22.6667 36.8334C22.6667 36.8334 25.6502 45.1804 26.105 46.6254C26.5612 48.0718 26.9267 48.1058 26.9267 48.1058L28.2923 39.6554L42.221 26.7694C42.5327 26.5328 42.5907 26.0894 42.3542 25.7778Z" fill="#CFD8DC"/>
</svg>
